<svg xmlns="http://www.w3.org/2000/svg" width="1582" height="763" viewBox="0 0 1582 763">
  <g id="Group_143" data-name="Group 143" transform="translate(-170 -6373)">
    <path id="Path_82" data-name="Path 82" d="M-18954.146,4662.708s-33.6-41.3-55.738-57.454-65.455-49.056-118.779-54.155-67.559-7.93-120.768,5.54-97.062,50.472-110.953,63.082-47.221,51.05-65.076,98.6-16.855,87.2-16.855,91.591" transform="translate(19794.48 1857)" fill="none" stroke="#fff" stroke-width="2"/>
    <path id="Path_83" data-name="Path 83" d="M-19436.6,4866.887c12.066,42.958,39.879,116.176,100.328,157.459s89.043,45.4,113.387,49.516,96.574,10.031,153.2-18.018,80.578-50.944,106.9-84.794,42.33-51.452,42.33-51.452" transform="translate(19794.48 1857)" fill="none" stroke="#fff" stroke-width="2"/>
    <path id="Path_84" data-name="Path 84" d="M-18893.561,4887.06l116.234-139.979,81.691-98.849s41.27-47.146,72.037-63.8c17.469-10.375,34.281-18.813,55.225-25.458s37.514-9.1,61.549-11.466c69.268-6.827,157.178,30.918,188.826,58.538a348.915,348.915,0,0,1,51.262,55.584s16.574,21.507,28.967,55.386c5.912,13.728,10.77,27.951,11.84,39.239" transform="translate(19794.48 1857)" fill="none" stroke="#fff" stroke-width="2"/>
    <path id="Path_85" data-name="Path 85" d="M-18220.158,4812.145s-1.283,29.99-2.383,37.2-8.176,37.51-8.176,37.51-8.893,27.7-16.674,42.334-20.951,35.32-20.951,35.32-16.684,22.615-19,24.216-30.625,30.3-41.277,37.366-39.062,26.318-63.84,34.561-57.26,16.945-88.994,16.724-72.547-6.036-99.98-17.4-62.23-31.179-79.955-48.162-30.4-31.081-30.4-31.081" transform="translate(19794.48 1857)" fill="none" stroke="#fff" stroke-width="2"/>
    <path id="Path_86" data-name="Path 86" d="M-18712.873,4956.787l-204.014-248.293" transform="translate(19794.48 1857)" fill="none" stroke="#fff" stroke-width="2"/>
    <circle id="Ellipse_124" data-name="Ellipse 124" cx="8.696" cy="8.696" r="8.696" transform="translate(836.089 6518)" fill="#fafb75"/>
    <path id="Path_87" data-name="Path 87" d="M-19423.711,4798.617l9.154,9.154,9.154-9.154" transform="translate(19766.711 1859.144)" fill="none" stroke="#fff" stroke-width="3"/>
    <path id="Path_88" data-name="Path 88" d="M-19423.711,4798.617l9.154,9.154,9.154-9.154" transform="translate(-16252.383 -3553.455) rotate(-135)" fill="none" stroke="#fff" stroke-width="3"/>
    <path id="Path_89" data-name="Path 89" d="M-19423.711,4798.617l9.154,9.154,9.154-9.154" transform="matrix(0.985, -0.174, 0.174, 0.985, 19853.693, -1491.187)" fill="none" stroke="#fff" stroke-width="3"/>
    <path id="Path_90" data-name="Path 90" d="M-19423.711,4798.617l9.154,9.154,9.154-9.154" transform="translate(-9226.639 23964.875) rotate(135)" fill="none" stroke="#fff" stroke-width="3"/>
    <path id="Path_91" data-name="Path 91" d="M-19423.711,4798.617l9.154,9.154,9.154-9.154" transform="translate(-9452.639 23691.875) rotate(135)" fill="none" stroke="#fff" stroke-width="3"/>
    <g id="Group_102" data-name="Group 102" transform="translate(19708.48 1836)">
      <circle id="Ellipse_125" data-name="Ellipse 125" cx="29" cy="29" r="29" transform="translate(-19322 4632)" fill="#fff"/>
      <text id="_01" data-name="01" transform="translate(-19293 4670)" font-size="22" font-family="Plus Jakarta Sans" font-weight="700"><tspan x="-12" y="0">01</tspan></text>
    </g>
    <g id="Group_103" data-name="Group 103" transform="translate(19890.48 2275)">
      <circle id="Ellipse_125-2" data-name="Ellipse 125" cx="29" cy="29" r="29" transform="translate(-19322 4632)" fill="#fff"/>
      <text id="_02" data-name="02" transform="translate(-19293 4670)" font-size="22" font-family="Plus Jakarta Sans" font-weight="700"><tspan x="-14" y="0">02</tspan></text>
    </g>
    <g id="Group_104" data-name="Group 104" transform="translate(20609.48 1741)">
      <circle id="Ellipse_125-3" data-name="Ellipse 125" cx="29" cy="29" r="29" transform="translate(-19322 4632)" fill="#fff"/>
      <text id="_03" data-name="03" transform="translate(-19293 4670)" font-size="22" font-family="Plus Jakarta Sans" font-weight="700"><tspan x="-14" y="0">03</tspan></text>
    </g>
    <g id="Group_105" data-name="Group 105" transform="translate(20780.48 2202)">
      <circle id="Ellipse_125-4" data-name="Ellipse 125" cx="29" cy="29" r="29" transform="translate(-19322 4632)" fill="#fff"/>
      <text id="_04" data-name="04" transform="translate(-19293 4670)" font-size="22" font-family="Plus Jakarta Sans" font-weight="700"><tspan x="-14" y="0">04</tspan></text>
    </g>
    <g id="Group_106" data-name="Group 106" transform="translate(20222.92 1967.761)">
      <circle id="Ellipse_125-5" data-name="Ellipse 125" cx="29" cy="29" r="29" transform="translate(-19322 4632)" fill="#fff"/>
      <text id="_05" data-name="05" transform="translate(-19293 4670)" font-size="22" font-family="Plus Jakarta Sans" font-weight="700"><tspan x="-14" y="0">05</tspan></text>
    </g>
    <g id="Group_121" data-name="Group 121" transform="translate(-914 476)">
      <g id="Rectangle_88" data-name="Rectangle 88" transform="translate(1084 5995)" stroke="#fff" stroke-width="1">
        <rect width="191" height="52" rx="26" stroke="none"/>
        <rect x="0.5" y="0.5" width="190" height="51" rx="25.5" fill="none"/>
      </g>
      <text id="Empathise" transform="translate(1121 6007)" fill="#fff" font-size="22" font-family="Plus Jakarta Sans" font-weight="300"><tspan x="-55" y="23">Empathise</tspan></text>
    </g>
    <g id="Group_122" data-name="Group 122" transform="translate(-516 1003)">
      <g id="Rectangle_88-2" data-name="Rectangle 88" transform="translate(1084 5995)" stroke="#fff" stroke-width="1">
        <rect width="191" height="52" rx="26" stroke="none"/>
        <rect x="0.5" y="0.5" width="190" height="51" rx="25.5" fill="none"/>
      </g>
      <text id="Define" transform="translate(1121 6007)" fill="#fff" font-size="22" font-family="Plus Jakarta Sans" font-weight="300"><tspan x="-34" y="23">Define</tspan></text>
    </g>
    <g id="Group_123" data-name="Group 123" transform="translate(280 378)">
      <g id="Rectangle_88-3" data-name="Rectangle 88" transform="translate(1084 5995)" stroke="#fff" stroke-width="1">
        <rect width="191" height="52" rx="26" stroke="none"/>
        <rect x="0.5" y="0.5" width="190" height="51" rx="25.5" fill="none"/>
      </g>
      <text id="Ideate" transform="translate(1121 6007)" fill="#fff" font-size="22" font-family="Plus Jakarta Sans" font-weight="300"><tspan x="-33" y="23">Ideate</tspan></text>
    </g>
    <g id="Group_124" data-name="Group 124" transform="translate(374 939)">
      <g id="Rectangle_88-4" data-name="Rectangle 88" transform="translate(1084 5995)" stroke="#fff" stroke-width="1">
        <rect width="191" height="52" rx="26" stroke="none"/>
        <rect x="0.5" y="0.5" width="190" height="51" rx="25.5" fill="none"/>
      </g>
      <text id="Protoype" transform="translate(1121 6007)" fill="#fff" font-size="22" font-family="Plus Jakarta Sans" font-weight="300"><tspan x="-49" y="23">Protoype</tspan></text>
    </g>
    <g id="Group_125" data-name="Group 125" transform="translate(-104 609)">
      <g id="Rectangle_88-5" data-name="Rectangle 88" transform="translate(1084 5995)" stroke="#fff" stroke-width="1">
        <rect width="191" height="52" rx="26" stroke="none"/>
        <rect x="0.5" y="0.5" width="190" height="51" rx="25.5" fill="none"/>
      </g>
      <text id="Test" transform="translate(1121 6007)" fill="#fff" font-size="22" font-family="Plus Jakarta Sans" font-weight="300"><tspan x="-21" y="23">Test</tspan></text>
    </g>
    <text id="Define_the_challenge_and_explore_the_human_context" data-name="Define the challenge and explore the human context" transform="translate(170 6548)" fill="#fff" font-size="22" font-family="Plus Jakarta Sans" font-weight="300" opacity="0.6"><tspan x="0" y="23">Define the challenge and </tspan><tspan x="0" y="56">explore the human context</tspan></text>
    <text id="Research_observe_understand_and_create_a_point_of_view" data-name="Research, observe, understand and create a point of view" transform="translate(568 7075)" fill="#fff" font-size="22" font-family="Plus Jakarta Sans" font-weight="300" opacity="0.6"><tspan x="0" y="23">Research, observe, understand </tspan><tspan x="0" y="56">and create a point of view</tspan></text>
    <text id="Start_creating_experiment_fail_cheap_and_fast" data-name="Start creating, experiment, fail cheap and fast" transform="translate(1458 7011)" fill="#fff" font-size="22" font-family="Plus Jakarta Sans" font-weight="300" opacity="0.6"><tspan x="0" y="23">Start creating, experiment, </tspan><tspan x="0" y="56">fail cheap and fast</tspan></text>
    <text id="Implement_the_product_show_and_don_t_tell_start_to_refine_the_product" data-name="Implement the product, show and don’t tell, start to refine the product" transform="translate(980 6681)" fill="#fff" font-size="22" font-family="Plus Jakarta Sans" font-weight="300" opacity="0.6"><tspan x="0" y="23">Implement the product, show and </tspan><tspan x="0" y="56">don’t tell, start to refine the product</tspan></text>
    <text id="Brainstorm_ideas_good_and_bad_don_t_stop_at_the_obvious" data-name="Brainstorm ideas good and bad, don’t stop at the obvious" transform="translate(1364 6450)" fill="#fff" font-size="22" font-family="Plus Jakarta Sans" font-weight="300" opacity="0.6"><tspan x="0" y="23">Brainstorm ideas good and </tspan><tspan x="0" y="56">bad, don’t stop at the obvious</tspan></text>
  </g>
</svg>
